#N canvas 4 22 591 741 12;
#X obj 44 66 delwrite~ b1 5000;
#X obj 67 782 vd~ b1;
#X obj 43 445 phasor~;
#X obj 44 625 *~ -1;
#X obj 44 650 +~ 1;
#X obj 144 739 sig~ 1;
#X obj 209 747 cos~;
#X obj 145 772 -~;
#X obj 146 797 *~ 0.5;
#X obj 67 826 *~;
#X obj 75 712 samphold~;
#X obj 44 739 *~;
#X obj 76 684 sig~;
#X floatatom 153 424 5 0 0 0 - - -;
#X floatatom 106 347 10 0 0 0 - - -;
#X floatatom 75 407 5 0 0 0 - - -;
#X floatatom 199 296 5 0 0 0 - - -;
#X obj 199 317 t b f;
#X obj 121 909 *~;
#X obj 153 398 / 44.1;
#X obj 454 762 vd~ b1;
#X obj 430 594 *~ -1;
#X obj 431 627 +~ 1;
#X obj 524 723 sig~ 1;
#X obj 588 730 cos~;
#X obj 525 754 -~;
#X obj 526 779 *~ 0.5;
#X obj 453 811 *~;
#X obj 465 692 samphold~;
#X obj 431 719 *~;
#X obj 466 664 sig~;
#X obj 451 507 +~ 0.5;
#X obj 451 529 wrap~;
#X obj 156 131 vsl 15 128 100 30000 0 0 empty empty Width 0 -7 0 6
-262144 -1 -1 5300 1;
#X obj 155 320 t b f;
#X obj 202 185 vsl 15 73 -36 36 0 0 empty empty Trans 0 -8 0 6 -262144
-1 -1 2700 1;
#X obj 106 368 expr (pow(2 \, ($f2/12)) - 1) * (44100/$f1);
#X text 219 249 -36;
#X text 225 177 36;
#X text 175 117 30000;
#X text 170 245 100;
#X text 353 73 3.7.2.1. Granular live;
#X text 53 114 window width;
#X text 250 157 Transposition (half-steps);
#X text 248 772 another way to;
#X text 222 798 make a Hanning window;
#X text 401 991 www.pd-tutorial.com;
#X text 418 964 Johannes Kreidler;
#X obj 210 937 outlet~;
#X obj 43 26 inlet~ input;
#X obj 158 272 hsl 60 15 0 1 0 0 GRNAVL empty Vol 4 8 0 10 -262144
-1 -1 5000 1;
#X obj 138 875 r GRNAVL;
#X obj 241 871 print;
#X connect 1 0 9 0;
#X connect 2 0 3 0;
#X connect 2 0 6 0;
#X connect 2 0 10 1;
#X connect 2 0 31 0;
#X connect 3 0 4 0;
#X connect 4 0 11 0;
#X connect 5 0 7 0;
#X connect 6 0 7 1;
#X connect 7 0 8 0;
#X connect 8 0 9 1;
#X connect 9 0 18 0;
#X connect 10 0 11 1;
#X connect 11 0 1 0;
#X connect 12 0 10 0;
#X connect 13 0 30 0;
#X connect 13 0 12 0;
#X connect 14 0 19 0;
#X connect 14 0 36 0;
#X connect 15 0 2 0;
#X connect 16 0 17 0;
#X connect 17 0 14 0;
#X connect 17 1 36 1;
#X connect 18 0 48 0;
#X connect 19 0 13 0;
#X connect 20 0 27 0;
#X connect 21 0 22 0;
#X connect 22 0 29 0;
#X connect 23 0 25 0;
#X connect 24 0 25 1;
#X connect 25 0 26 0;
#X connect 26 0 27 1;
#X connect 27 0 18 0;
#X connect 28 0 29 1;
#X connect 29 0 20 0;
#X connect 30 0 28 0;
#X connect 31 0 32 0;
#X connect 32 0 21 0;
#X connect 32 0 28 1;
#X connect 32 0 24 0;
#X connect 33 0 34 0;
#X connect 34 0 16 0;
#X connect 34 1 14 0;
#X connect 35 0 16 0;
#X connect 36 0 15 0;
#X connect 49 0 0 0;
#X connect 51 0 18 1;
#X connect 51 0 52 0;
#X coords 0 -1 1 1 95 190 1 150 100;
