#N canvas 0 22 450 300 10;
#X obj 55 34 inlet~;
#X obj 55 89 +~;
#X obj 55 137 +~;
#X obj 54 236 *~ 0.4;
#X obj 56 407 delwrite~ A 1000;
#X obj -13 129 outlet~ r;
#X obj -82 129 outlet~ l;
#X obj 108 87 +~;
#X obj 92 137 -~;
#X obj 92 202 +~;
#X obj 94 254 *~ 0.37;
#X obj 54 201 +~;
#X obj 96 387 delwrite~ B 1000;
#X obj 144 43 delread~ A 100;
#X obj 158 63 delread~ B 143;
#X obj 172 82 delread~ C 165;
#X obj 201 102 delread~ D 177;
#X obj 160 137 +~;
#X obj 200 138 -~;
#X obj 146 198 -~;
#X obj 143 275 *~ 0.333;
#X obj 185 297 *~ 0.3;
#X obj 185 198 -~;
#X obj 142 365 delwrite~ C 1000;
#X obj 184 348 delwrite~ D 1000;
#X connect 0 0 1 0;
#X connect 0 0 6 0;
#X connect 0 0 7 0;
#X connect 1 0 2 0;
#X connect 1 0 8 0;
#X connect 2 0 11 0;
#X connect 2 0 19 0;
#X connect 3 0 4 0;
#X connect 7 0 2 1;
#X connect 7 0 8 1;
#X connect 7 0 5 0;
#X connect 8 0 9 0;
#X connect 8 0 22 0;
#X connect 9 0 10 0;
#X connect 10 0 12 0;
#X connect 11 0 3 0;
#X connect 13 0 1 1;
#X connect 14 0 7 1;
#X connect 15 0 17 0;
#X connect 15 0 18 0;
#X connect 16 0 18 1;
#X connect 16 0 17 1;
#X connect 17 0 19 1;
#X connect 17 0 11 1;
#X connect 18 0 9 1;
#X connect 18 0 22 1;
#X connect 19 0 20 0;
#X connect 20 0 23 0;
#X connect 21 0 24 0;
#X connect 22 0 21 0;
