#N canvas 59 81 643 412 10;
#X obj 57 -43 MouseState;
#X obj 58 86 LiveVarispeed;
#X obj 94 55 adc~;
#X obj 161 84 hsl 300 30 0 0.1 0 0 SpeedBar_snd SpeedBar_rcv empty
-2 -8 0 10 -262144 -1 -1 0 1;
#X obj 58 192 output~;
#X msg 149 28 \; SpeedBar_rcv range \$1 \$2;
#X floatatom 217 -45 5 0 0 0 - - -;
#X floatatom 285 -20 5 0 0 0 - - -;
#X floatatom 158 122 5 0 0 0 - - -;
#X obj 150 -22 bng 15 250 50 0 empty empty empty 17 7 0 10 -262144
-1 -1;
#X text 249 -44 %;
#X text 317 -19 %;
#N canvas 690 76 450 300 Left_and_Right_Range 0;
#X obj 168 19 inlet;
#X obj 217 19 inlet;
#X obj 117 242 outlet;
#X obj 117 203 pack 0 0;
#X obj 117 171 f;
#X obj 117 19 inlet;
#X obj 168 122 expr (1-$f1*.01)*1/20;
#X obj 217 142 expr (1-$f1*.01)*1/20;
#X connect 0 0 6 0;
#X connect 1 0 7 0;
#X connect 3 0 2 0;
#X connect 4 0 3 0;
#X connect 5 0 4 0;
#X connect 6 0 4 1;
#X connect 7 0 3 1;
#X restore 150 4 pd Left_and_Right_Range;
#X text 268 -45 Fastest Playback Speed;
#X text 345 -20 Slowest Playback Speed;
#X obj 287 247 writesf~;
#X obj 286 117 bng 15 250 50 0 empty empty empty 17 7 0 10 -262144
-1 -1;
#X obj 286 136 savepanel;
#X msg 286 157 open \$1;
#X msg 304 176 start;
#X msg 304 196 stop;
#X obj 271 223 r~ save_GOD;
#X obj 68 173 s~ save_GOD;
#X obj 792 516;
#X msg 528 220 set \$1;
#X msg 525 249 /Users/Josh/PureData/Patches/Effects/SimpleReverb/SimpleReverb.pd
;
#X obj 524 163 bng 15 250 50 0 empty empty empty 17 7 0 10 -262144
-1 -1;
#X obj 527 184 openpanel;
#X obj 192 328 /Users/Josh/PureData/Patches/Effects/SimpleReverb/SimpleReverb
;
#N canvas 0 22 450 300 send 0;
#X obj 96 60 inlet~;
#X obj 98 234 outlet~;
#X obj 115 98 +~;
#X obj 198 233 outlet~;
#X obj 270 30 inlet;
#X obj 126 125 expr~ $v1* pow($f2 \, .8);
#X connect 0 0 2 0;
#X connect 2 0 1 0;
#X connect 2 0 5 0;
#X connect 4 0 5 1;
#X connect 5 0 3 0;
#X restore 154 288 pd send;
#X obj 220 173 vsl 15 128 0 1 0 0 empty empty empty 0 -9 0 10 -262144
-1 -1 0 1;
#X obj 150 385 +~;
#X obj 402 29 pipe;
#X floatatom 151 174 5 0 0 0 - - -;
#X obj 161 146 * 25;
#X connect 0 0 1 0;
#X connect 1 0 29 0;
#X connect 1 1 3 0;
#X connect 2 0 1 1;
#X connect 2 1 1 1;
#X connect 3 0 1 2;
#X connect 3 0 8 0;
#X connect 6 0 12 1;
#X connect 7 0 12 2;
#X connect 8 0 34 0;
#X connect 9 0 12 0;
#X connect 12 0 5 0;
#X connect 16 0 17 0;
#X connect 17 0 18 0;
#X connect 18 0 15 0;
#X connect 19 0 15 0;
#X connect 20 0 15 0;
#X connect 21 0 15 0;
#X connect 24 0 25 0;
#X connect 26 0 27 0;
#X connect 27 0 24 0;
#X connect 28 0 31 1;
#X connect 28 1 31 1;
#X connect 29 0 31 0;
#X connect 29 1 28 0;
#X connect 30 0 29 1;
#X connect 31 0 22 0;
#X connect 31 0 4 0;
#X connect 31 0 4 1;
#X connect 34 0 30 0;
#X connect 34 0 33 0;
