#N canvas 817 54 434 588 10;
#X obj -17 435 vd~ bank_GOD;
#X obj 72 -164 delwrite~ bank_GOD 20000;
#X obj -17 317 phasor~;
#X obj -17 339 *~ 20000;
#X floatatom 146 159 5 0 0 0 - - -;
#X floatatom -3 383 10 0 0 0 - - -;
#X obj -24 -164 tgl 15 0 empty empty empty 17 7 0 10 -262144 -1 -1
0 1;
#X obj -24 -82 sel 0 1;
#X obj -5 -61 bng 15 250 50 0 empty empty empty 17 7 0 10 -262144 -1
-1;
#X obj -24 -61 bng 15 250 50 0 empty empty empty 17 7 0 10 -262144
-1 -1;
#X obj 14 -61 s cout_GOD;
#X obj 28 249 r tog_GOD;
#X obj -16 -143 s tog_GOD;
#X obj -17 235 line;
#X floatatom -17 256 5 0 0 0 - - -;
#X obj -24 -186 inlet;
#X obj 72 -186 inlet~;
#X obj -17 491 outlet~;
#X obj 147 114 outlet;
#X obj 147 134 inlet;
#X msg -17 212 \$1 50;
#X obj -24 96 line;
#X obj 3 20 f;
#X obj -24 -7 t b b;
#X obj 106 417 hsl 50 8 0 20000 0 0 empty empty empty -2 -8 0 10 -262144
-1 -1 1257 1;
#X obj -2 361 unsig~ 100;
#X obj 170 418 vsl 8 8 0 100 0 0 empty empty empty 0 -9 0 10 -262144
-1 -1 700 1;
#X obj 40 40 osc~;
#X obj 52 273 sel 1;
#X msg 55 294 0;
#X text 97 272 This module was added on May 13th (2013) in order to
allow the slider to slide back to the start position without restarting
the phase of the phasor \, and thus restart the playback prematurely.
;
#X msg -24 69 0 200;
#X connect 0 0 17 0;
#X connect 2 0 3 0;
#X connect 3 0 0 0;
#X connect 3 0 25 0;
#X connect 5 0 24 0;
#X connect 5 0 26 0;
#X connect 6 0 7 0;
#X connect 6 0 12 0;
#X connect 7 0 9 0;
#X connect 7 1 8 0;
#X connect 8 0 10 0;
#X connect 8 0 18 0;
#X connect 9 0 23 0;
#X connect 11 0 28 0;
#X connect 13 0 14 0;
#X connect 14 0 2 0;
#X connect 15 0 6 0;
#X connect 16 0 1 0;
#X connect 19 0 4 0;
#X connect 19 0 20 0;
#X connect 19 0 22 1;
#X connect 20 0 13 0;
#X connect 21 0 18 0;
#X connect 22 0 21 0;
#X connect 23 0 31 0;
#X connect 23 1 22 0;
#X connect 25 0 5 0;
#X connect 28 0 29 0;
#X connect 29 0 2 1;
#X connect 31 0 21 0;
#X coords 0 -1 1 1 80 30 1 100 400;
