#N canvas 144 139 802 559 10;
#X obj 110 374 *~ 0.3;
#X obj 95 429 +~;
#X obj 98 482 delwrite~ \$0-a2 100;
#X obj 110 264 inlet~;
#X obj 50 349 r~ \$0-fb;
#X obj 279 29 inlet fb;
#X obj 278 266 clip -1 1;
#X obj 278 289 * 0.4;
#X obj 338 84 inlet rate;
#X obj 380 300 + 1;
#X obj 379 274 * 5;
#X obj 380 321 osc~;
#X obj 380 346 *~;
#X obj 380 371 +~;
#X obj 274 478 *~;
#X obj 276 504 s~ \$0-fb;
#X obj 380 450 *~ 1;
#X obj 313 313 osc~;
#X obj 312 342 *~;
#X obj 311 369 +~;
#X obj 312 399 vd~ \$0-a1;
#X obj 378 403 vd~ \$0-a2;
#X obj 395 144 inlet depth;
#X obj 493 270 * 2;
#X obj 488 453 r~ \$0-d;
#X obj 486 503 outlet~ r;
#X obj 382 508 outlet~ l;
#X obj 121 403 s~ \$0-d;
#X obj 104 455 delwrite~ \$0-a1 100;
#X text 555 501 This right output recieves a totally dry signal.;
#X text 381 536 The Left output is the wet signal.;
#X text 423 310 This entire section is dedicated to determining the
frequency and amplitude of a cosine function.;
#X text 443 371 These buffers hold the chorused data. The cosine function
that precedes these determines to location of the play head \, which
oscillate back and forth over the input/feedback data to achieve faster
and slower playback speeds. (The tape head never gets close to moving
fast enough to go in reverse).;
#X obj 480 111 hsl 128 15 -100 100 0 0 empty empty Feedback -2 -8 0
10 -262144 -1 -1 10500 1;
#X floatatom 612 111 5 0 0 0 - - -;
#X obj 317 227 * 0.01;
#X text 650 113 %;
#X obj 480 143 hsl 128 15 0 5 0 0 empty empty Rate -2 -8 0 10 -262144
-1 -1 2600 1;
#X floatatom 612 142 5 0 0 0 - - -;
#X obj 378 227 * 0.2;
#X obj 480 176 hsl 128 15 0 100 0 0 empty empty Depth -2 -8 0 10 -262144
-1 -1 1800 1;
#X floatatom 612 175 5 0 0 0 - - -;
#X text 648 178 %;
#X text 648 144 Hz;
#X obj 228 534 hsl 128 15 0 100 0 0 empty empty empty -2 -8 0 10 -262144
-1 -1 1798 1;
#X obj 234 505 unsig~ 50;
#X obj 430 228 * 0.25;
#X connect 0 0 1 1;
#X connect 0 0 27 0;
#X connect 1 0 2 0;
#X connect 1 0 28 0;
#X connect 3 0 0 0;
#X connect 4 0 1 0;
#X connect 5 0 33 0;
#X connect 6 0 7 0;
#X connect 7 0 14 0;
#X connect 8 0 37 0;
#X connect 9 0 11 0;
#X connect 10 0 9 0;
#X connect 10 0 17 0;
#X connect 11 0 12 0;
#X connect 12 0 13 0;
#X connect 13 0 21 0;
#X connect 14 0 15 0;
#X connect 16 0 14 1;
#X connect 16 0 26 0;
#X connect 17 0 18 0;
#X connect 18 0 19 0;
#X connect 19 0 20 0;
#X connect 19 0 45 0;
#X connect 20 0 16 0;
#X connect 21 0 16 0;
#X connect 22 0 40 0;
#X connect 23 0 18 1;
#X connect 23 0 12 1;
#X connect 23 0 19 1;
#X connect 23 0 13 1;
#X connect 24 0 25 0;
#X connect 33 0 34 0;
#X connect 33 0 35 0;
#X connect 35 0 6 0;
#X connect 37 0 38 0;
#X connect 37 0 39 0;
#X connect 39 0 10 0;
#X connect 40 0 41 0;
#X connect 40 0 46 0;
#X connect 45 0 44 0;
#X connect 46 0 23 0;
#X coords 0 -1 1 1 200 150 1 470 50;
